<svg width="22" height="22" viewBox="0 0 22 22" fill="none" xmlns="http://www.w3.org/2000/svg">
<path d="M7.68192 8.11557C8.31991 9.44442 9.18967 10.6898 10.291 11.7913C11.3925 12.8927 12.638 13.7625 13.9668 14.4005C14.0811 14.4553 14.1382 14.4828 14.2105 14.5039C14.4676 14.5788 14.7831 14.525 15.0007 14.3691C15.062 14.3252 15.1144 14.2729 15.2191 14.1681C15.5396 13.8475 15.6998 13.6873 15.861 13.5826C16.4686 13.1875 17.252 13.1875 17.8597 13.5826C18.0208 13.6873 18.1811 13.8475 18.5015 14.1681L18.6801 14.3467C19.1673 14.8339 19.4109 15.0774 19.5431 15.339C19.8063 15.8592 19.8063 16.4737 19.5431 16.994C19.4109 17.2555 19.1673 17.4992 18.6801 17.9863L18.5356 18.1307C18.0502 18.6163 17.8074 18.859 17.4773 19.0444C17.1111 19.2501 16.5423 19.398 16.1223 19.3968C15.7438 19.3957 15.4851 19.3222 14.9677 19.1754C12.1871 18.3861 9.56321 16.8971 7.37427 14.7081C5.18529 12.5191 3.69619 9.89523 2.90697 7.11465C2.76011 6.59724 2.68667 6.33854 2.68555 5.96C2.6843 5.53997 2.83221 4.97118 3.03793 4.60497C3.22333 4.27494 3.46607 4.0322 3.95156 3.5467L4.09606 3.40221C4.58321 2.91505 4.8268 2.67147 5.08839 2.53916C5.60866 2.27601 6.22306 2.27601 6.74333 2.53916C7.00492 2.67147 7.24851 2.91505 7.73566 3.40221L7.91429 3.58084C8.23476 3.90131 8.395 4.06155 8.49976 4.22267C8.89484 4.83033 8.89484 5.61369 8.49976 6.22134C8.395 6.38247 8.23476 6.54271 7.91429 6.86318C7.80951 6.96797 7.75711 7.02036 7.71326 7.0816C7.55742 7.29924 7.50361 7.61481 7.57852 7.87181C7.5996 7.94413 7.62704 8.00127 7.68192 8.11557Z" stroke="#00BB31" stroke-width="1.83333" stroke-linecap="round" stroke-linejoin="round"/>
</svg>
